<svg width="95" height="19" viewBox="0 0 95 19" fill="none" xmlns="http://www.w3.org/2000/svg">
<path d="M0.792 9.552C0.792 7.888 1.152 6.408 1.872 5.112C2.592 3.8 3.592 2.784 4.872 2.064C6.168 1.328 7.632 0.959999 9.264 0.959999C11.264 0.959999 12.976 1.488 14.4 2.544C15.824 3.6 16.776 5.04 17.256 6.864H12.744C12.408 6.16 11.928 5.624 11.304 5.256C10.696 4.888 10 4.704 9.216 4.704C7.952 4.704 6.928 5.144 6.144 6.024C5.36 6.904 4.968 8.08 4.968 9.552C4.968 11.024 5.36 12.2 6.144 13.08C6.928 13.96 7.952 14.4 9.216 14.4C10 14.4 10.696 14.216 11.304 13.848C11.928 13.48 12.408 12.944 12.744 12.24H17.256C16.776 14.064 15.824 15.504 14.4 16.56C12.976 17.6 11.264 18.12 9.264 18.12C7.632 18.12 6.168 17.76 4.872 17.04C3.592 16.304 2.592 15.288 1.872 13.992C1.152 12.696 0.792 11.216 0.792 9.552ZM25.8653 18.168C24.6333 18.168 23.5293 17.968 22.5533 17.568C21.5773 17.168 20.7933 16.576 20.2013 15.792C19.6253 15.008 19.3213 14.064 19.2893 12.96H23.6573C23.7213 13.584 23.9373 14.064 24.3053 14.4C24.6733 14.72 25.1533 14.88 25.7453 14.88C26.3533 14.88 26.8333 14.744 27.1853 14.472C27.5373 14.184 27.7133 13.792 27.7133 13.296C27.7133 12.88 27.5693 12.536 27.2813 12.264C27.0093 11.992 26.6653 11.768 26.2493 11.592C25.8493 11.416 25.2733 11.216 24.5213 10.992C23.4333 10.656 22.5453 10.32 21.8573 9.984C21.1693 9.648 20.5773 9.152 20.0813 8.496C19.5853 7.84 19.3373 6.984 19.3373 5.928C19.3373 4.36 19.9053 3.136 21.0413 2.256C22.1773 1.36 23.6573 0.912 25.4813 0.912C27.3373 0.912 28.8333 1.36 29.9693 2.256C31.1053 3.136 31.7133 4.368 31.7933 5.952H27.3533C27.3213 5.408 27.1213 4.984 26.7533 4.68C26.3853 4.36 25.9133 4.2 25.3372 4.2C24.8413 4.2 24.4413 4.336 24.1373 4.608C23.8333 4.864 23.6813 5.24 23.6813 5.736C23.6813 6.28 23.9373 6.704 24.4492 7.008C24.9613 7.312 25.7613 7.64 26.8493 7.992C27.9373 8.36 28.8173 8.712 29.4893 9.048C30.1773 9.384 30.7693 9.872 31.2653 10.512C31.7613 11.152 32.0093 11.976 32.0093 12.984C32.0093 13.944 31.7613 14.816 31.2653 15.6C30.7853 16.384 30.0813 17.008 29.1533 17.472C28.2253 17.936 27.1293 18.168 25.8653 18.168ZM44.6629 1.32V3.552H37.5829V8.472H43.1029V10.704H37.5829V18H34.8469V1.32H44.6629ZM46.2864 11.328C46.2864 10 46.5584 8.824 47.1024 7.8C47.6624 6.776 48.4144 5.984 49.3584 5.424C50.3184 4.848 51.3744 4.56 52.5264 4.56C53.5664 4.56 54.4704 4.768 55.2384 5.184C56.0224 5.584 56.6464 6.088 57.1104 6.696V4.776H59.8704V18H57.1104V16.032C56.6464 16.656 56.0144 17.176 55.2144 17.592C54.4144 18.008 53.5024 18.216 52.4784 18.216C51.3424 18.216 50.3024 17.928 49.3584 17.352C48.4144 16.76 47.6624 15.944 47.1024 14.904C46.5584 13.848 46.2864 12.656 46.2864 11.328ZM57.1104 11.376C57.1104 10.464 56.9184 9.672 56.5344 9C56.1664 8.328 55.6784 7.816 55.0704 7.464C54.4624 7.112 53.8064 6.936 53.1024 6.936C52.3984 6.936 51.7424 7.112 51.1344 7.464C50.5264 7.8 50.0304 8.304 49.6464 8.976C49.2784 9.632 49.0944 10.416 49.0944 11.328C49.0944 12.24 49.2784 13.04 49.6464 13.728C50.0304 14.416 50.5264 14.944 51.1344 15.312C51.7584 15.664 52.4144 15.84 53.1024 15.84C53.8064 15.84 54.4624 15.664 55.0704 15.312C55.6784 14.96 56.1664 14.448 56.5344 13.776C56.9184 13.088 57.1104 12.288 57.1104 11.376ZM66.2001 6.696C66.6001 6.024 67.1281 5.504 67.7841 5.136C68.4561 4.752 69.2481 4.56 70.1601 4.56V7.392H69.4641C68.3921 7.392 67.5761 7.664 67.0161 8.208C66.4721 8.752 66.2001 9.696 66.2001 11.04V18H63.4641V4.776H66.2001V6.696ZM88.683 4.56C89.723 4.56 90.651 4.776 91.467 5.208C92.299 5.64 92.947 6.28 93.411 7.128C93.891 7.976 94.131 9 94.131 10.2V18H91.419V10.608C91.419 9.424 91.123 8.52 90.531 7.896C89.939 7.256 89.131 6.936 88.107 6.936C87.083 6.936 86.267 7.256 85.659 7.896C85.067 8.52 84.771 9.424 84.771 10.608V18H82.059V10.608C82.059 9.424 81.763 8.52 81.171 7.896C80.579 7.256 79.771 6.936 78.747 6.936C77.723 6.936 76.907 7.256 76.299 7.896C75.707 8.52 75.411 9.424 75.411 10.608V18H72.675V4.776H75.411V6.288C75.859 5.744 76.427 5.32 77.115 5.016C77.803 4.712 78.539 4.56 79.323 4.56C80.379 4.56 81.323 4.784 82.155 5.232C82.987 5.68 83.627 6.328 84.075 7.176C84.475 6.376 85.099 5.744 85.947 5.28C86.795 4.8 87.707 4.56 88.683 4.56Z" fill="#F4C542"/>
</svg>
